<svg width="24" height="24" viewBox="0 0 24 24" fill="none" xmlns="http://www.w3.org/2000/svg">
<path fill-rule="evenodd" clip-rule="evenodd" d="M7.34516 4.01697C10.439 3.67403 13.5613 3.67403 16.6552 4.01697C18.3682 4.20897 19.7502 5.55797 19.9512 7.27697C20.3181 10.4149 20.3181 13.585 19.9512 16.723C19.7502 18.442 18.3682 19.791 16.6552 19.983C13.5613 20.326 10.439 20.326 7.34516 19.983C5.63216 19.791 4.25016 18.442 4.04916 16.723C3.68218 13.5853 3.68218 10.4156 4.04916 7.27797C4.15083 6.44284 4.53154 5.66651 5.12959 5.07481C5.72765 4.48311 6.50799 4.11071 7.34416 4.01797M12.0002 7.00697C12.1991 7.00697 12.3898 7.08599 12.5305 7.22664C12.6711 7.36729 12.7502 7.55806 12.7502 7.75697V11.25H16.2432C16.4421 11.25 16.6328 11.329 16.7735 11.4696C16.9141 11.6103 16.9932 11.8011 16.9932 12C16.9932 12.1989 16.9141 12.3896 16.7735 12.5303C16.6328 12.671 16.4421 12.75 16.2432 12.75H12.7502V16.243C12.7502 16.4419 12.6711 16.6326 12.5305 16.7733C12.3898 16.914 12.1991 16.993 12.0002 16.993C11.8012 16.993 11.6105 16.914 11.4698 16.7733C11.3292 16.6326 11.2502 16.4419 11.2502 16.243V12.75H7.75716C7.55825 12.75 7.36748 12.671 7.22683 12.5303C7.08618 12.3896 7.00716 12.1989 7.00716 12C7.00716 11.8011 7.08618 11.6103 7.22683 11.4696C7.36748 11.329 7.55825 11.25 7.75716 11.25H11.2502V7.75697C11.2502 7.55806 11.3292 7.36729 11.4698 7.22664C11.6105 7.08599 11.8012 7.00697 12.0002 7.00697Z" fill="white"/>
</svg>
