<svg width="22" height="22" viewBox="0 0 22 22" fill="none" xmlns="http://www.w3.org/2000/svg">
<g id="Iconly/Regular/Bold/Calendar">
<g id="Calendar">
<path id="Calendar_2" fill-rule="evenodd" clip-rule="evenodd" d="M15.0433 2.53782L15.0442 3.22497C17.5693 3.42287 19.2373 5.14351 19.24 7.78219L19.25 15.5058C19.2536 18.3827 17.4462 20.1528 14.5492 20.1574L7.47256 20.1666C4.59359 20.1702 2.76358 18.358 2.75996 15.4728L2.75001 7.83991C2.74639 5.18383 4.35557 3.46777 6.88066 3.23597L6.87975 2.54881C6.87885 2.14568 7.17751 1.84242 7.57574 1.84242C7.97396 1.8415 8.27262 2.14385 8.27353 2.54698L8.27444 3.18833L13.6504 3.181L13.6495 2.53965C13.6486 2.13652 13.9473 1.83417 14.3455 1.83325C14.7347 1.83234 15.0424 2.13469 15.0433 2.53782ZM4.14469 8.12302L17.8472 8.1047V7.78402C17.8082 5.81418 16.8199 4.78069 15.046 4.62677L15.0469 5.33225C15.0469 5.72622 14.7401 6.03865 14.3509 6.03865C13.9527 6.03956 13.6531 5.72805 13.6531 5.33408L13.6522 4.59196L8.27624 4.59929L8.27715 5.3405C8.27715 5.73538 7.97939 6.04689 7.58117 6.04689C7.18294 6.04781 6.88337 5.73722 6.88337 5.34233L6.88247 4.63685C5.11762 4.81368 4.14107 5.85082 4.14378 7.83808L4.14469 8.12302ZM13.9699 12.2872V12.2973C13.979 12.7187 14.3229 13.0385 14.7401 13.0293C15.1474 13.0192 15.4723 12.6702 15.4633 12.2487C15.4442 11.8456 15.1175 11.5167 14.7112 11.5176C14.2948 11.5267 13.969 11.8657 13.9699 12.2872ZM14.7175 16.401C14.3012 16.3918 13.9654 16.0446 13.9645 15.6231C13.9554 15.2016 14.2894 14.8526 14.7057 14.8425H14.7148C15.1401 14.8425 15.485 15.1897 15.485 15.6203C15.4859 16.051 15.142 16.4 14.7175 16.401ZM10.2411 12.3018C10.2592 12.7233 10.604 13.0522 11.0204 13.0339C11.4276 13.0147 11.7525 12.6665 11.7344 12.245C11.7245 11.8327 11.3896 11.5121 10.9823 11.513C10.566 11.5313 10.2402 11.8804 10.2411 12.3018ZM11.024 16.3597C10.6077 16.3781 10.2637 16.0491 10.2447 15.6277C10.2447 15.2062 10.5696 14.8581 10.986 14.8388C11.3932 14.8379 11.729 15.1586 11.7381 15.57C11.7571 15.9923 11.4313 16.3405 11.024 16.3597ZM6.5123 12.3339C6.5304 12.7554 6.87523 13.0852 7.29155 13.066C7.69882 13.0476 8.02374 12.6986 8.00473 12.2771C7.99568 11.8648 7.66081 11.5441 7.25263 11.5451C6.83631 11.5634 6.5114 11.9125 6.5123 12.3339ZM7.29517 16.3643C6.87885 16.3836 6.53493 16.0537 6.51592 15.6323C6.51502 15.2108 6.84083 14.8617 7.25716 14.8434C7.66443 14.8425 8.0002 15.1632 8.00925 15.5755C8.02826 15.9969 7.70335 16.346 7.29517 16.3643Z" fill="#9899AA"/>
</g>
</g>
</svg>
