<svg width="300" height="300" viewBox="0 0 300 300" fill="none" xmlns="http://www.w3.org/2000/svg">
<path d="M162.735 198.735L222.735 138.735C226.117 135.353 228.016 130.767 228.016 125.985C228.016 121.203 226.117 116.617 222.735 113.235C219.354 109.853 214.767 107.954 209.985 107.954C205.203 107.954 200.617 109.853 197.235 113.235L168 142.5V18C168 13.2261 166.104 8.64773 162.728 5.27208C159.352 1.89642 154.774 0 150 0C145.226 0 140.648 1.89642 137.272 5.27208C133.896 8.64773 132 13.2261 132 18V142.5L102.735 113.265C101.061 111.591 99.0729 110.262 96.8853 109.356C94.6976 108.45 92.3529 107.984 89.985 107.984C85.2028 107.984 80.6165 109.883 77.235 113.265C73.8535 116.647 71.9538 121.233 71.9538 126.015C71.9538 130.797 73.8535 135.383 77.235 138.765L137.235 198.765C138.909 200.441 140.898 201.77 143.087 202.676C145.276 203.582 147.622 204.047 149.991 204.044C152.36 204.041 154.705 203.571 156.892 202.66C159.079 201.749 161.065 200.415 162.735 198.735ZM0 270L0 186C0 181.226 1.89642 176.648 5.27208 173.272C8.64773 169.896 13.2261 168 18 168C22.7739 168 27.3523 169.896 30.7279 173.272C34.1036 176.648 36 181.226 36 186L36 264H264V186C264 181.226 265.896 176.648 269.272 173.272C272.648 169.896 277.226 168 282 168C286.774 168 291.352 169.896 294.728 173.272C298.104 176.648 300 181.226 300 186V270C300 277.957 296.839 285.587 291.213 291.213C285.587 296.839 277.957 300 270 300H30C22.0435 300 14.4129 296.839 8.7868 291.213C3.1607 285.587 0 277.957 0 270Z" fill="#9899AA"/>
</svg>
