<svg width="364" height="364" viewBox="0 0 364 364" fill="none" xmlns="http://www.w3.org/2000/svg">
<path d="M182 363.667C190.284 363.667 197 356.951 197 348.667C197 340.382 190.284 333.667 182 333.667L182 363.667ZM15.3334 182H0.333374H15.3334ZM182 30.3333C190.284 30.3333 197 23.6176 197 15.3333C197 7.04904 190.284 0.333313 182 0.333313L182 30.3333ZM140.333 167C132.049 167 125.333 173.716 125.333 182C125.333 190.284 132.049 197 140.333 197V167ZM348.667 182L359.273 192.607C365.131 186.749 365.131 177.251 359.273 171.393L348.667 182ZM296.773 108.893C290.915 103.036 281.418 103.036 275.56 108.893C269.702 114.751 269.702 124.249 275.56 130.107L296.773 108.893ZM275.56 233.893C269.702 239.751 269.702 249.249 275.56 255.107C281.418 260.964 290.915 260.964 296.773 255.107L275.56 233.893ZM182 333.667C141.776 333.667 103.199 317.688 74.7555 289.245L53.5423 310.458C87.6114 344.527 133.819 363.667 182 363.667L182 333.667ZM74.7555 289.245C46.3125 260.802 30.3334 222.224 30.3334 182H0.333374C0.333374 230.181 19.4732 276.389 53.5423 310.458L74.7555 289.245ZM30.3334 182C30.3334 141.775 46.3125 103.198 74.7555 74.7555L53.5423 53.5423C19.4732 87.6114 0.333374 133.819 0.333374 182H30.3334ZM74.7555 74.7555C103.199 46.3124 141.776 30.3333 182 30.3333L182 0.333313C133.819 0.333313 87.6114 19.4731 53.5423 53.5423L74.7555 74.7555ZM140.333 197H348.667V167H140.333V197ZM359.273 171.393L296.773 108.893L275.56 130.107L338.06 192.607L359.273 171.393ZM338.06 171.393L275.56 233.893L296.773 255.107L359.273 192.607L338.06 171.393Z" fill="#ffff"/>
</svg>
