<svg width="38" height="35" viewBox="0 0 38 35" fill="none" xmlns="http://www.w3.org/2000/svg">
<path d="M19.0054 4.24377C13.7718 4.24377 9.51854 8.16669 9.51854 12.9938V17.2084C9.51854 18.0979 9.10744 19.4542 8.61729 20.2125L6.79897 22.9979C5.67636 24.7188 6.45112 26.6292 8.50661 27.2709C15.3213 29.3709 22.6737 29.3709 29.4884 27.2709C31.4016 26.6875 32.2396 24.6021 31.1961 22.9979L29.3777 20.2125C28.9034 19.4542 28.4923 18.0979 28.4923 17.2084V12.9938C28.4923 8.18127 24.2232 4.24377 19.0054 4.24377Z" stroke="#0A3B83" stroke-width="1.5" stroke-miterlimit="10" stroke-linecap="round"/>
<path d="M21.9304 4.66672C21.4403 4.53547 20.9343 4.43339 20.4125 4.37506C18.8946 4.20006 17.44 4.30214 16.0802 4.66672C16.5387 3.58756 17.6772 2.82922 19.0053 2.82922C20.3335 2.82922 21.4719 3.58756 21.9304 4.66672Z" stroke="#0A3B83" stroke-width="1.5" stroke-miterlimit="10" stroke-linecap="round" stroke-linejoin="round"/>
<path d="M23.7488 27.7958C23.7488 30.202 21.6143 32.1708 19.0054 32.1708C17.7089 32.1708 16.5072 31.6749 15.6534 30.8874C14.7996 30.0999 14.262 28.9916 14.262 27.7958" stroke="#0A3B83" stroke-width="1.5" stroke-miterlimit="10"/>
</svg>
