<svg width="300" height="300" viewBox="0 0 300 300" fill="none" xmlns="http://www.w3.org/2000/svg">
<path d="M0.000244141 270V185.999C0.000244141 181.225 1.89667 176.647 5.27232 173.271C8.64798 169.896 13.2263 167.999 18.0002 167.999C22.7741 167.999 27.3525 169.896 30.7282 173.271C34.1038 176.647 36.0002 181.225 36.0002 185.999V264H264V185.999C264 181.225 265.897 176.647 269.272 173.271C272.648 169.896 277.226 167.999 282 167.999C286.774 167.999 291.352 169.896 294.728 173.271C298.104 176.647 300 181.225 300 185.999V270C300 277.956 296.84 285.587 291.213 291.213C285.587 296.839 277.957 300 270 300H30.0002C22.0437 300 14.4131 296.839 8.78704 291.213C3.16095 285.587 0.000244141 277.956 0.000244141 270Z" fill="#9899AA"/>
<path d="M137.236 5.30925L77.2358 65.3096C73.8543 68.6912 71.9546 73.2775 71.9546 78.0597C71.9546 82.8419 73.8543 87.4283 77.2358 90.8098C80.6173 94.1913 85.2036 96.0911 89.9858 96.0911C94.768 96.0911 99.3543 94.1913 102.736 90.8098L131.971 61.5446V186.045C131.971 190.819 133.867 195.398 137.243 198.773C140.619 202.149 145.197 204.046 149.971 204.046C154.745 204.046 159.323 202.149 162.699 198.773C166.074 195.398 167.971 190.819 167.971 186.045V61.5446L197.236 90.7798C198.91 92.4542 200.898 93.7824 203.086 94.6885C205.273 95.5947 207.618 96.0611 209.986 96.0611C214.768 96.0611 219.354 94.1613 222.736 90.7798C226.117 87.3983 228.017 82.8119 228.017 78.0297C228.017 73.2475 226.117 68.6612 222.736 65.2796L162.736 5.27924C161.062 3.60312 159.073 2.27398 156.884 1.36805C154.695 0.462118 152.349 -0.00277468 149.98 1.24582e-05C147.611 0.0027996 145.265 0.473221 143.078 1.3843C140.892 2.29538 138.906 3.62919 137.236 5.30925Z" fill="#9899AA"/>
</svg>
