<svg width="300" height="300" viewBox="0 0 300 300" fill="none" xmlns="http://www.w3.org/2000/svg">
<path d="M219.85 0H80.1667C29.5 0 0 26.7 0 72.45V227.4C0 273.9 29.5 300 80.1667 300H219.85C271.333 300 300 273.9 300 227.4V72.45C300 26.7 271.333 0 219.85 0Z" fill="#9899AA"/>
<path d="M84.6667 69.75V69.9C77.4833 69.9 71.6667 75.15 71.6667 81.6C71.6667 88.05 77.4833 93.3 84.6667 93.3H134.483C141.667 93.3 147.5 88.05 147.5 81.435C147.5 75 141.667 69.75 134.483 69.75H84.6667Z" fill="white"/>
<path d="M215.333 161.1H84.6667C77.4833 161.1 71.6667 155.85 71.6667 149.4C71.6667 142.95 77.4833 137.685 84.6667 137.685H215.333C222.5 137.685 228.333 142.95 228.333 149.4C228.333 155.85 222.5 161.1 215.333 161.1Z" fill="white"/>
<path d="M215.333 229.65H84.6667C79.6667 230.25 74.8333 228 72.1667 224.25C69.5 220.35 69.5 215.4 72.1667 211.65C74.8333 207.75 79.6667 205.65 84.6667 206.1H215.333C221.983 206.7 227 211.8 227 217.95C227 223.935 221.983 229.05 215.333 229.65Z" fill="white"/>
</svg>
