<svg width="16" height="16" viewBox="0 0 16 16" fill="none" xmlns="http://www.w3.org/2000/svg">
<path id="Shape" d="M7.99239 0.157694C8.58037 0.165768 9.1659 0.232561 9.73952 0.356994C9.98992 0.411313 10.1768 0.61237 10.2045 0.857408L10.3378 2.03227C10.3981 2.5717 10.8711 2.98141 11.4365 2.98349C11.5884 2.98412 11.7388 2.95413 11.8794 2.89486L13.0027 2.42456C13.2363 2.32675 13.5088 2.38114 13.6826 2.56026C14.4912 3.39398 15.0925 4.3929 15.4411 5.48186C15.5163 5.71667 15.4283 5.97141 15.222 6.11661L14.2256 6.81787C13.9413 7.01727 13.7729 7.33468 13.772 7.67272C13.7711 8.01076 13.9378 8.32906 14.2216 8.53041L15.2152 9.23722C15.4208 9.38349 15.5074 9.63872 15.431 9.87317C15.0767 10.9601 14.4705 11.9557 13.6579 12.7852C13.4834 12.9634 13.2108 13.0165 12.9777 12.9177L11.8523 12.4407C11.5304 12.3045 11.1601 12.3233 10.8551 12.4915C10.55 12.6597 10.3465 12.9573 10.3069 13.293L10.1683 14.467C10.1398 14.7091 9.95589 14.9078 9.7089 14.9635C8.54781 15.2255 7.33885 15.2223 6.17918 14.9541C5.93248 14.8971 5.74967 14.6974 5.72238 14.4551L5.59026 13.2821C5.55143 12.9469 5.34919 12.6492 5.04528 12.4799C4.74137 12.3106 4.37186 12.2899 4.05025 12.4237L2.92212 12.8948C2.68845 12.9923 2.41606 12.9377 2.24249 12.7586C1.43385 11.9237 0.832924 10.9237 0.484941 9.83375C0.409989 9.59899 0.497989 9.34442 0.704252 9.19934L1.70218 8.49739C1.98643 8.298 2.15483 7.98058 2.15573 7.64255C2.15663 7.30451 1.98992 6.9862 1.70637 6.78503L0.712816 6.07899C0.507024 5.93275 0.420301 5.67739 0.49677 5.44283C0.851159 4.35574 1.45772 3.36003 2.27081 2.53064C2.4455 2.35244 2.7183 2.2995 2.95141 2.39856L4.07202 2.87475C4.39446 3.01163 4.76562 2.99208 5.07208 2.82123C5.37722 2.65235 5.58085 2.35453 5.62091 2.01881L5.76028 0.845571C5.78939 0.60056 5.97747 0.400437 6.22831 0.347568C6.80326 0.226389 7.38975 0.162746 7.99239 0.157694ZM7.96856 5.34993C6.64123 5.3464 5.56246 6.37672 5.55906 7.65122C5.55567 8.92572 6.62893 9.96178 7.95627 9.96531C9.28361 9.96885 10.3624 8.93853 10.3658 7.66402C10.3692 6.38952 9.2959 5.35347 7.96856 5.34993Z" fill="#9899AA"/>
</svg>
