<svg width="16" height="15" viewBox="0 0 16 15" fill="none" xmlns="http://www.w3.org/2000/svg">
<path fill-rule="evenodd" clip-rule="evenodd" d="M10.7568 1.73039L10.7574 2.1989C12.4791 2.33383 13.6164 3.507 13.6182 5.30609L13.625 10.5722C13.6275 12.5337 12.3951 13.7406 10.4199 13.7437L5.59493 13.75C3.632 13.7525 2.38426 12.5169 2.38179 10.5497L2.375 5.34545C2.37254 3.53448 3.4697 2.36444 5.19136 2.2064L5.19074 1.73788C5.19012 1.46302 5.39376 1.25625 5.66527 1.25625C5.93679 1.25562 6.14043 1.46177 6.14104 1.73663L6.14166 2.17391L9.80712 2.16892L9.8065 1.73164C9.80588 1.45677 10.0095 1.25063 10.281 1.25C10.5464 1.24938 10.7562 1.45552 10.7568 1.73039ZM3.32592 5.53848L12.6685 5.52598V5.30734C12.642 3.96427 11.9681 3.25962 10.7586 3.15467L10.7593 3.63568C10.7593 3.9043 10.5501 4.11731 10.2847 4.11731C10.0132 4.11794 9.80896 3.90555 9.80896 3.63693L9.80835 3.13093L6.14289 3.13593L6.14351 3.6413C6.14351 3.91054 5.94049 4.12294 5.66897 4.12294C5.39746 4.12356 5.19321 3.91179 5.19321 3.64255L5.19259 3.16154C3.98928 3.28211 3.32345 3.98925 3.3253 5.3442L3.32592 5.53848ZM10.0249 8.37768V8.38455C10.0311 8.67191 10.2656 8.88992 10.5501 8.88368C10.8278 8.87681 11.0493 8.6388 11.0431 8.35144C11.0302 8.07658 10.8074 7.85232 10.5303 7.85294C10.2465 7.85919 10.0243 8.09032 10.0249 8.37768ZM10.5346 11.1825C10.2508 11.1763 10.0219 10.9395 10.0212 10.6522C10.0151 10.3648 10.2428 10.1268 10.5266 10.1199H10.5328C10.8228 10.1199 11.0579 10.3567 11.0579 10.6503C11.0585 10.9439 10.8241 11.1819 10.5346 11.1825ZM7.48257 8.38768C7.49491 8.67503 7.73002 8.89929 8.01388 8.8868C8.29156 8.87368 8.5131 8.6363 8.50075 8.34894C8.49397 8.06784 8.26565 7.8492 7.98796 7.84982C7.7041 7.86231 7.48195 8.10032 7.48257 8.38768ZM8.01635 11.1544C7.73249 11.1669 7.498 10.9426 7.48504 10.6553C7.48504 10.3679 7.70657 10.1306 7.99043 10.1174C8.26812 10.1168 8.49705 10.3355 8.50322 10.6159C8.51618 10.9039 8.29403 11.1413 8.01635 11.1544ZM4.9402 8.40954C4.95254 8.6969 5.18765 8.92178 5.47151 8.90866C5.74919 8.89617 5.97073 8.65817 5.95777 8.37081C5.9516 8.0897 5.72328 7.87106 5.44497 7.87168C5.16112 7.88418 4.93959 8.12218 4.9402 8.40954ZM5.47398 11.1575C5.19012 11.1707 4.95563 10.9458 4.94267 10.6584C4.94205 10.3711 5.1642 10.1331 5.44806 10.1206C5.72575 10.1199 5.95468 10.3386 5.96085 10.6197C5.97381 10.907 5.75228 11.145 5.47398 11.1575Z" fill="#9899AA"/>
</svg>
