<svg width="300" height="300" viewBox="0 0 300 300" fill="none" xmlns="http://www.w3.org/2000/svg">
<path d="M300 137.311V275.998C300 282.364 297.366 288.469 292.677 292.97C287.989 297.471 281.63 300 275 300H212.5C205.869 300 199.511 297.471 194.822 292.97C190.134 288.469 187.5 282.364 187.5 275.998V215.993C187.5 212.81 186.183 209.757 183.839 207.507C181.494 205.256 178.315 203.992 175 203.992H125C121.685 203.992 118.505 205.256 116.161 207.507C113.817 209.757 112.5 212.81 112.5 215.993V275.998C112.5 282.364 109.866 288.469 105.178 292.97C100.489 297.471 94.1303 300 87.4999 300H25C18.3696 300 12.0107 297.471 7.32232 292.97C2.63392 288.469 2.88872e-07 282.364 2.88872e-07 275.998V137.311C-0.000525669 133.989 0.717174 130.703 2.10768 127.662C3.49818 124.62 5.53121 121.888 8.07811 119.64L133.078 6.41003L133.25 6.24502C137.852 2.22668 143.849 0 150.07 0C156.291 0 162.288 2.22668 166.89 6.24502C166.944 6.30372 167.001 6.35885 167.062 6.41003L292.062 119.64C294.584 121.9 296.59 124.637 297.956 127.678C299.322 130.719 300.018 133.999 300 137.311Z" fill="#9899AA"/>
</svg>
