<svg width="22" height="22" viewBox="0 0 22 22" fill="none" xmlns="http://www.w3.org/2000/svg">
<path fill-rule="evenodd" clip-rule="evenodd" d="M12.7834 11.8159C13.0466 12.0817 13.4732 12.0817 13.7364 11.8159C14.0087 11.55 14.0087 11.1192 13.7455 10.8534L11.1407 8.21337C11.0771 8.14921 11.0045 8.10337 10.9228 8.06671C10.8412 8.03004 10.7595 8.01171 10.6687 8.01171C10.578 8.01171 10.4872 8.03004 10.4055 8.06671C10.3238 8.10337 10.2512 8.14921 10.1877 8.21337L7.59199 10.8534C7.32879 11.1192 7.32879 11.55 7.59199 11.8159C7.85519 12.0817 8.28176 12.0817 8.54496 11.8159L9.98803 10.3492V14.7767C9.98803 15.1525 10.2875 15.455 10.6687 15.455C11.0408 15.455 11.3403 15.1525 11.3403 14.7767V10.3492L12.7834 11.8159ZM17.7175 8.27352C17.9308 8.27105 18.1631 8.26837 18.3742 8.26837C18.6011 8.26837 18.7917 8.45171 18.7917 8.68087V16.0509C18.7917 18.3242 16.9583 20.1667 14.7075 20.1667H7.49216C5.12334 20.1667 3.20833 18.2325 3.20833 15.8492V5.96754C3.20833 3.69421 5.03259 1.83337 7.30156 1.83337H12.1481C12.375 1.83337 12.5656 2.02587 12.5656 2.25504V5.20671C12.5656 6.88421 13.927 8.25921 15.5969 8.26837C15.9787 8.26837 16.3176 8.27126 16.6153 8.27379C16.8484 8.27577 17.0563 8.27754 17.2397 8.27754C17.3689 8.27754 17.5363 8.27561 17.7175 8.27352ZM17.9709 6.93554C17.2249 6.93829 16.3463 6.93554 15.7137 6.92912C14.71 6.92912 13.8831 6.09404 13.8831 5.08021V2.66387C13.8831 2.26879 14.3569 2.07262 14.6283 2.35771C15.327 3.09079 16.3965 4.21413 17.3006 5.16381C17.6672 5.54889 18.0066 5.90542 18.2831 6.19579C18.5472 6.47354 18.353 6.93462 17.9709 6.93554Z" fill="#9899AA"/>
</svg>
