<svg width="15" height="15" viewBox="0 0 15 15" fill="none" xmlns="http://www.w3.org/2000/svg">
<path d="M11.195 0C11.46 5.00264e-05 11.7211 0.0632768 11.9568 0.184436C12.1924 0.305594 12.3958 0.481193 12.55 0.696667L12.6242 0.809167L14.6442 4.17583C14.8432 4.50784 14.9625 4.88155 14.9925 5.2675L15 5.46167V13.3333C15.0001 13.7538 14.8413 14.1588 14.5554 14.4671C14.2695 14.7754 13.8776 14.9643 13.4583 14.9958L13.3333 15H1.66667C1.24619 15.0001 0.841194 14.8413 0.532877 14.5554C0.224559 14.2695 0.0357028 13.8776 0.00416676 13.4583L0 13.3333V5.46167C2.62257e-05 5.07406 0.0901777 4.69178 0.263333 4.345L0.356667 4.175L2.375 0.809167C2.51134 0.581788 2.69995 0.390215 2.92517 0.250354C3.1504 0.110493 3.40574 0.0263805 3.67 0.00500003L3.805 0H11.195ZM11.195 1.66667H8.33333V5H13.195L11.195 1.66667ZM6.66667 1.66667H3.805L1.805 5H6.66667V1.66667Z" fill="#9899AA"/>
</svg>
